# xmcd
#
# Track frame offsets:
#	150
#	31637
#	49725
#	77970
#	105750
#	127067
#	153634
#	176440
#	198367
#
# Disc length: 3101 seconds
#
# Revision: 0
# Processed by: cddbd v1.5.1PL0 Copyright (c) Steve Scherf et al.
# Submitted via: dBpowerAMP V4.0
#
DISCID=690c1b09
DTITLE=Johnnie Bassett and the Blues Insurgents - Live at the Montreux-Detroit Jazz Festival
DYEAR=1995
DGENRE=Blues
TTITLE0=One Mint Julep
TTITLE1=Times Gettin' Tougher Than Tough
TTITLE2=I Want A Little Girl
TTITLE3=Hentai Ni
TTITLE4=Pick Up The Pieces
TTITLE5=Woke Up This Morning
TTITLE6=Sweet Little Angel
TTITLE7=Please Send Someone To Love
TTITLE8=Honky Tonk
EXTD=
EXTT0=
EXTT1=
EXTT2=
EXTT3=
EXTT4=
EXTT5=
EXTT6=
EXTT7=
EXTT8=
PLAYORDER=
